<svg width="102" height="74" xmlns="http://www.w3.org/2000/svg" xmlns:xlink="http://www.w3.org/1999/xlink" xml:space="preserve" overflow="hidden"><g transform="translate(-575 -313)"><path d="M66.3742 24.4456C66.3742 24.4456 71.3027 22.6318 71.3027 14.9947 71.3027 9.48937 66.3582 5.94163 59.9404 5.94163L47.3348 5.94163 47.3348 32.8627 54.9672 32.8627 54.9672 25.7177 59.087 25.7177 63.9579 32.8627 72.188 32.8627 66.371 24.4473ZM59.9852 19.7953 59.9852 19.8001 54.9672 19.8001 54.9672 12.0095 59.9852 12.0095 59.9852 12.0143C62.379 12.0622 63.8637 13.7833 63.8637 15.9056 63.8637 18.0278 62.5357 19.7521 59.9852 19.7969Z" fill="#FFFFFF" transform="matrix(1 0 0 1.01062 575 313.002)"/><path d="M29.6027 26.9786 29.6027 32.8611 5.59324 32.8515 5.59324 28.5256 19.5684 11.9008 5.94642 11.9008 5.94642 5.93523 29.0513 5.93523 29.0545 10.2788 15.0474 26.977 29.6042 26.977Z" fill="#FFFFFF" transform="matrix(1 0 0 1.01062 575 313.002)"/><path d="M40.7955 27.2375C41.6185 26.9019 42.3776 26.4257 43.0392 25.8328L46.9049 29.8887C44.9233 32.1755 41.9302 33.3181 37.9222 33.3181 35.6673 33.3645 33.4332 32.8835 31.3972 31.9134 29.5979 31.0569 28.0844 29.7001 27.0378 28.0078 25.991 26.3155 25.4557 24.3578 25.494 22.3698 25.4685 20.4009 25.999 18.4641 27.0233 16.7814 28.0493 15.1273 29.5084 13.785 31.2439 12.8981 33.1025 11.9472 35.1655 11.4678 37.2542 11.4997 39.1991 11.4885 41.12 11.928 42.8635 12.7845 44.5462 13.6107 45.9605 14.894 46.9433 16.4873 47.9932 18.2308 48.5222 20.2363 48.4662 22.2691L33.3469 25.1329C34.1556 26.8252 35.7584 27.6642 38.1555 27.6642 39.0536 27.685 39.9485 27.5411 40.794 27.2375ZM34.1172 17.9128C33.2638 18.8461 32.7892 20.0606 32.7812 21.323L41.3756 19.645C41.1343 18.7917 40.6118 18.0422 39.8926 17.5197 39.028 16.9363 37.9941 16.6582 36.9537 16.7302 35.9134 16.8021 34.9258 17.2176 34.1508 17.9128L34.1172 17.9128Z" fill="#FFFFFF" transform="matrix(1 0 0 1.01062 575 313.002)"/><path d="M38.4 10.9468 31.4436 10.9532 37.024 5.93683 46.9641 5.93683 38.4 10.9468Z" fill="#FFFFFF" transform="matrix(1 0 0 1.01062 575 313.002)"/><path d="M5.59324 43.3253 5.59324 36.4535 8.7159 36.4535C9.46215 36.4535 10.1189 36.5958 10.6895 36.8802 11.26 37.1647 11.7043 37.5642 12.0238 38.0772 12.3451 38.5918 12.5049 39.1943 12.5049 39.8878 12.5049 40.5814 12.3451 41.1855 12.0238 41.6985 11.7027 42.213 11.2584 42.611 10.6895 42.8954 10.1206 43.1798 9.46215 43.3221 8.7159 43.3221L5.59324 43.3221ZM7.19291 42.0293 8.63595 42.0293C9.09463 42.0293 9.49094 41.943 9.82809 41.7688 10.1653 41.5962 10.4274 41.3469 10.6128 41.0224 10.7982 40.6981 10.8924 40.3209 10.8924 39.8878 10.8924 39.4548 10.7998 39.0696 10.6128 38.7484 10.4258 38.4272 10.1638 38.1811 9.82809 38.0069 9.49094 37.8343 9.09299 37.7464 8.63595 37.7464L7.19291 37.7464 7.19291 42.026Z" fill="#FFFFFF" transform="matrix(1 0 0 1.01062 575 313.002)"/><path d="M15.0379 42.0484 18.7789 42.0484 18.7789 43.3253 13.4573 43.3253 13.4573 36.4535 18.6511 36.4535 18.6511 37.7304 15.0379 37.7304 15.0379 42.05ZM14.9196 39.2119 18.2276 39.2119 18.2276 40.4583 14.9196 40.4583 14.9196 39.2119ZM15.1657 35.8926 16.4905 34.4784 18.1301 34.4784 16.3626 35.8926 15.1657 35.8926Z" fill="#FFFFFF" transform="matrix(1 0 0 1.01062 575 313.002)"/><path d="M23.0873 43.3253C22.5568 43.3253 22.0646 43.239 21.6091 43.0648 21.1536 42.8922 20.7605 42.6445 20.4265 42.3233 20.0925 42.002 19.832 41.6265 19.6467 41.1951 19.4597 40.7636 19.367 40.2889 19.367 39.7711 19.367 39.2534 19.4597 38.7803 19.6467 38.3473 19.8337 37.9142 20.0957 37.5387 20.4313 37.2174 20.7685 36.8962 21.1648 36.6501 21.6187 36.4759 22.0741 36.3034 22.5663 36.2155 23.0969 36.2155 23.693 36.2155 24.2315 36.3193 24.7173 36.5238 25.2015 36.73 25.6075 37.032 25.9351 37.4316L24.9043 38.3744C24.6758 38.1059 24.4153 37.903 24.1245 37.7656 23.8336 37.6281 23.5172 37.5595 23.1768 37.5595 22.8556 37.5595 22.5615 37.6138 22.293 37.7209 22.0246 37.8295 21.7928 37.9813 21.5963 38.1779 21.3998 38.3744 21.2479 38.6061 21.1393 38.8746 21.0306 39.1431 20.9779 39.4403 20.9779 39.768 20.9779 40.0956 21.0322 40.3928 21.1393 40.6613 21.2479 40.9298 21.3998 41.1615 21.5963 41.358 21.7928 41.5546 22.0246 41.7064 22.293 41.8151 22.5615 41.9237 22.8556 41.9765 23.1768 41.9765 23.5172 41.9765 23.8336 41.9062 24.1245 41.7655 24.4153 41.6249 24.6758 41.4204 24.9043 41.1519L25.9351 42.0948C25.6075 42.4943 25.2015 42.7979 24.7173 43.0073 24.2332 43.2166 23.6898 43.3221 23.0873 43.3221Z" fill="#FFFFFF" transform="matrix(1 0 0 1.01062 575 313.002)"/><path d="M28.3497 43.3253 26.7501 43.3253 26.7501 36.4535 28.3497 36.4535 28.3497 43.3253ZM31.5794 40.5079 28.2219 40.5079 28.2219 39.1623 31.5794 39.1623 31.5794 40.5079ZM31.4612 36.452 33.0513 36.452 33.0513 43.3236 31.4612 43.3236 31.4612 36.452Z" fill="#FFFFFF" transform="matrix(1 0 0 1.01062 575 313.002)"/><path d="M36.0173 42.0484 39.7583 42.0484 39.7583 43.3253 34.4368 43.3253 34.4368 36.4535 39.6305 36.4535 39.6305 37.7304 36.0173 37.7304 36.0173 42.05ZM35.8991 39.2119 39.2071 39.2119 39.2071 40.4583 35.8991 40.4583 35.8991 39.2119Z" fill="#FFFFFF" transform="matrix(1 0 0 1.01062 575 313.002)"/><path d="M42.4911 43.3253 42.4911 37.7496 40.2921 37.7496 40.2921 36.4535 46.2801 36.4535 46.2801 37.7496 44.0812 37.7496 44.0812 43.3253 42.4911 43.3253Z" fill="#FFFFFF" transform="matrix(1 0 0 1.01062 575 313.002)"/><path d="M51.835 43.4451C51.2853 43.4451 50.7563 43.3716 50.2497 43.2246 49.7431 43.0776 49.3356 42.8858 49.0272 42.6509L49.5673 41.4539C49.855 41.6633 50.2017 41.8358 50.6077 41.9701 51.0136 42.1043 51.4227 42.1714 51.835 42.1714 52.1498 42.1714 52.4023 42.1395 52.5957 42.0724 52.789 42.0069 52.9313 41.9206 53.0223 41.8119 53.1134 41.7033 53.1598 41.5786 53.1598 41.4332 53.1598 41.2494 53.0879 41.104 52.944 40.9969 52.8002 40.8882 52.6085 40.8003 52.3703 40.7316 52.1322 40.6628 51.8717 40.5973 51.5905 40.535 51.3092 40.4727 51.0264 40.3976 50.7419 40.3097 50.4574 40.2218 50.1954 40.1036 49.9572 39.9565 49.7175 39.8095 49.529 39.6162 49.3883 39.378 49.2477 39.1399 49.1774 38.8395 49.1774 38.4799 49.1774 38.0868 49.2829 37.7289 49.4922 37.4044 49.7015 37.08 50.0212 36.8227 50.4494 36.6294 50.8778 36.436 51.4163 36.3401 52.0651 36.3401 52.4966 36.3401 52.9249 36.3928 53.3468 36.4967 53.7687 36.6006 54.1362 36.7524 54.4511 36.949L53.9509 38.146C53.6424 37.9686 53.326 37.8375 52.9984 37.748 52.6708 37.6601 52.3575 37.6154 52.0555 37.6154 51.7535 37.6154 51.4898 37.6506 51.2996 37.7192 51.1095 37.7879 50.9704 37.8807 50.8825 37.9989 50.7947 38.1172 50.7499 38.2482 50.7499 38.392 50.7499 38.5758 50.8218 38.7228 50.9656 38.8331 51.1095 38.9449 51.2996 39.0312 51.5346 39.0936 51.7695 39.1559 52.0315 39.2182 52.3192 39.2805 52.6069 39.3429 52.8913 39.4196 53.1726 39.5106 53.4538 39.6017 53.7127 39.7184 53.9476 39.8591 54.1826 39.9997 54.3743 40.1899 54.5214 40.4279 54.6684 40.6677 54.7419 40.9634 54.7419 41.3165 54.7419 41.7033 54.6348 42.0564 54.4223 42.376 54.2097 42.6972 53.8869 42.9546 53.4555 43.1511 53.0239 43.3476 52.4838 43.4451 51.835 43.4451Z" fill="#FFFFFF" transform="matrix(1 0 0 1.01062 575 313.002)"/><path d="M54.6812 43.3269 57.7351 36.4552 59.3059 36.4552 62.3886 43.3269 60.7203 43.3269 58.1969 37.259 58.8345 37.259 56.3112 43.3269 54.6812 43.3269ZM56.2233 41.8551 56.626 40.6469 60.1801 40.6469 60.5924 41.8551 56.2233 41.8551Z" fill="#FFFFFF" transform="matrix(1 0 0 1.01062 575 313.002)"/><path d="M65.7654 43.4451C64.7906 43.4451 64.0282 43.1735 63.4785 42.6301 62.9288 42.0868 62.6539 41.3085 62.6539 40.2938L62.6539 36.4552 64.2536 36.4552 64.2536 40.2537C64.2536 40.9026 64.3878 41.3708 64.6563 41.6633 64.9248 41.9541 65.2971 42.0996 65.7749 42.0996 66.2528 42.0996 66.6347 41.9541 66.9048 41.6633 67.1733 41.3725 67.3075 40.9026 67.3075 40.2537L67.3075 36.4552 68.8688 36.4552 68.8688 40.2938C68.8688 41.3085 68.594 42.0868 68.0442 42.6301 67.4945 43.1735 66.7354 43.4451 65.7669 43.4451Z" fill="#FFFFFF" transform="matrix(1 0 0 1.01062 575 313.002)"/><path d="M72.2647 43.3269 69.2907 36.4552 71.0182 36.4552 73.6103 42.5422 72.5987 42.5422 75.2292 36.4552 76.8096 36.4552 73.8356 43.3269 72.2647 43.3269Z" fill="#FFFFFF" transform="matrix(1 0 0 1.01062 575 313.002)"/><path d="M76.0042 43.3269 79.0578 36.4552 80.6286 36.4552 83.7114 43.3269 82.0433 43.3269 79.52 37.259 80.1579 37.259 77.6342 43.3269 76.0042 43.3269ZM77.5464 41.8551 77.949 40.6469 81.5035 40.6469 81.9154 41.8551 77.5464 41.8551Z" fill="#FFFFFF" transform="matrix(1 0 0 1.01062 575 313.002)"/><path d="M87.403 43.4451C86.8601 43.4451 86.3595 43.3589 85.9013 43.1846 85.4423 43.0104 85.0476 42.7644 84.7134 42.4431 84.3799 42.1219 84.1194 41.7464 83.9334 41.3149 83.7467 40.8834 83.6541 40.4088 83.6541 39.891 83.6541 39.3733 83.7467 38.9002 83.9334 38.4671 84.121 38.0356 84.3846 37.6585 84.7251 37.3373 85.0649 37.0161 85.465 36.77 85.9217 36.5958 86.3791 36.4216 86.8836 36.3353 87.4336 36.3353 88.0425 36.3353 88.5909 36.4376 89.0782 36.639 89.5654 36.8419 89.9758 37.1359 90.31 37.5227L89.2986 38.4655C89.0429 38.197 88.7682 37.9989 88.474 37.871 88.1798 37.7432 87.8557 37.6793 87.5027 37.6793 87.1747 37.6793 86.8742 37.7336 86.5996 37.8407 86.3242 37.9493 86.0864 38.1012 85.8879 38.2977 85.6902 38.4943 85.5348 38.726 85.4266 38.9945 85.3175 39.2629 85.2649 39.5602 85.2649 39.8878 85.2649 40.2155 85.3191 40.4951 85.4266 40.7667 85.5348 41.0384 85.6886 41.2717 85.8879 41.4683 86.088 41.6649 86.3226 41.8183 86.5949 41.9302 86.8663 42.042 87.1653 42.0963 87.4925 42.0963 87.8204 42.0963 88.1131 42.0436 88.4097 41.9397 88.707 41.8358 88.9981 41.6617 89.279 41.4188L90.1821 42.5678C89.8016 42.8555 89.3669 43.0728 88.8765 43.2214 88.3861 43.3684 87.8958 43.442 87.403 43.442ZM88.7282 42.3648 88.7282 39.7824 90.1805 39.7824 90.1805 42.571 88.7282 42.3648Z" fill="#FFFFFF" transform="matrix(1 0 0 1.01062 575 313.002)"/><path d="M92.9887 42.0516 96.7282 42.0516 96.7282 43.3285 91.4077 43.3285 91.4077 36.4568 96.6019 36.4568 96.6019 37.7336 92.9887 37.7336 92.9887 42.0532ZM92.8702 39.2134 96.1782 39.2134 96.1782 40.4599 92.8702 40.4599 92.8702 39.2134Z" fill="#FFFFFF" transform="matrix(1 0 0 1.01062 575 313.002)"/><path d="M97.9184 19.4277C97.9184 27.5096 91.3669 34.0613 83.2854 34.0613 75.2031 34.0613 68.6515 27.5096 68.6515 19.4277 68.6515 11.3459 75.2031 4.79421 83.2854 4.79421 91.3669 4.79421 97.9184 11.3459 97.9184 19.4277Z" fill="#062F65" transform="matrix(1 0 0 1.01062 575 313.002)"/><path d="M96.1397 19.4277C96.1397 26.5273 90.3846 32.2826 83.2854 32.2826 76.1854 32.2826 70.4301 26.5273 70.4301 19.4277 70.4301 12.3282 76.1854 6.57286 83.2854 6.57286 90.3846 6.57286 96.1397 12.3282 96.1397 19.4277Z" fill="#FFFFFF" transform="matrix(1 0 0 1.01062 575 313.002)"/><path d="M94.1554 19.4277C94.1554 25.4311 89.2885 30.2978 83.2854 30.2978 77.2816 30.2978 72.4149 25.4311 72.4149 19.4277 72.4149 13.4244 77.2816 8.55764 83.2854 8.55764 89.2885 8.55764 94.1554 13.4244 94.1554 19.4277Z" fill="#062F65" transform="matrix(1 0 0 1.01062 575 313.002)"/><path d="M90.2959 19.4277C90.2959 23.2996 87.1566 26.4385 83.2854 26.4385 79.4133 26.4385 76.2743 23.2996 76.2743 19.4277 76.2743 15.5558 79.4133 12.417 83.2854 12.417 87.1566 12.417 90.2959 15.5558 90.2959 19.4277Z" fill="#FFFFFF" fill-opacity="0.92" transform="matrix(1 0 0 1.01062 575 313.002)"/><path d="M87.068 19.4277C87.068 21.5168 85.374 23.2103 83.2854 23.2103 81.1959 23.2103 79.5027 21.5168 79.5027 19.4277 79.5027 17.3387 81.1959 15.6451 83.2854 15.6451 85.374 15.6451 87.068 17.3387 87.068 19.4277Z" fill="#47BEEF" transform="matrix(1 0 0 1.01062 575 313.002)"/><path d="M14.397 61.93 11.2872 61.93 11.2872 67.2772 5.59484 67.2772 5.59484 47.1511 14.7949 47.1511C16.4218 47.1143 18.039 47.4227 19.5396 48.0556 20.8053 48.5973 21.8856 49.4986 22.6446 50.6476 23.391 51.8286 23.7697 53.203 23.7378 54.5997 23.7681 55.9404 23.4149 57.2637 22.7181 58.411 22.007 59.5201 20.9939 60.4022 19.7985 60.9536L24.1404 67.2787 18.0582 67.2787 14.3986 61.9284ZM17.0929 52.4135C16.4985 51.8909 15.6164 51.6289 14.4481 51.6289L11.2856 51.6289 11.2856 57.5305 14.4481 57.5305C15.6195 57.5305 16.5001 57.2765 17.0929 56.7698 17.689 56.2473 17.9846 55.5361 17.9846 54.5981 17.9846 53.66 17.689 52.9297 17.0929 52.4135Z" fill="#FFFFFF" transform="matrix(1 0 0 1.01062 575 313.002)"/><path d="M34.0149 63.0518C34.6206 62.7994 35.1799 62.4462 35.6673 62.0067L38.5135 64.9967C37.0368 66.689 34.8363 67.536 31.9087 67.5377 30.2483 67.5696 28.6039 67.2116 27.1064 66.4925 25.7817 65.8612 24.6678 64.8624 23.8975 63.616 23.1272 62.3679 22.7309 60.9248 22.7597 59.4594 22.7374 58.0068 23.1257 56.5765 23.8816 55.3348 24.631 54.1186 25.6986 53.131 26.9706 52.4806 28.3338 51.7743 29.8504 51.4147 31.3845 51.4355 32.8227 51.4179 34.2467 51.7375 35.541 52.3688 36.778 52.976 37.8183 53.9221 38.5423 55.0951 39.3141 56.3815 39.704 57.8629 39.6641 59.3635L28.5367 61.5017C29.1312 62.7498 30.309 63.3731 32.0733 63.3714 32.7349 63.3859 33.3932 63.2788 34.0149 63.0551ZM29.1121 56.1945C28.5191 56.7794 28.1835 57.6184 28.1052 58.7115L34.4304 57.4746C34.2547 56.8433 33.8695 56.2904 33.3374 55.9069 32.7013 55.477 31.9406 55.2725 31.1751 55.3252 30.4097 55.3779 29.6826 55.6831 29.1121 56.1945Z" fill="#FFFFFF" transform="matrix(1 0 0 1.01062 575 313.002)"/><path d="M39.2614 47.1223 45.6729 47.1223 51.0775 58.3072 56.4534 47.1223 62.8649 47.1223 62.8649 67.2772 57.604 67.2772 57.604 55.3172 53.0032 65.286 49.1215 65.286 44.5206 55.3092 44.5206 67.2772 39.2598 67.2772 39.2598 47.1223Z" fill="#FFFFFF" transform="matrix(1 0 0 1.01062 575 313.002)"/><path d="M74.0082 63.0503C74.6139 62.7994 75.1732 62.4446 75.6606 62.0051L78.507 64.9951C77.0302 66.6794 74.8264 67.5232 71.894 67.5249 70.2336 67.5568 68.5891 67.1989 67.0918 66.4797 65.7701 65.8485 64.6579 64.8513 63.8893 63.6063 63.1189 62.3615 62.7243 60.9201 62.7514 59.4562 62.7291 58.0036 63.1174 56.5733 63.8733 55.3315 64.6195 54.1075 65.6903 53.1119 66.9655 52.4566 68.3303 51.7583 69.8452 51.4067 71.3778 51.4322 72.8161 51.4147 74.2399 51.7343 75.5328 52.3655 76.7712 52.9728 77.8116 53.9173 78.5353 55.0919 79.3074 56.3783 79.6957 57.8597 79.6573 59.3603L68.53 61.4873C69.1229 62.7354 70.3007 63.3571 72.0665 63.3555 72.7265 63.3731 73.3849 63.2708 74.0082 63.0503ZM69.1053 56.1929C68.5108 56.7778 68.1752 57.6168 68.0986 58.7099L74.4237 57.473C74.2464 56.8418 73.8628 56.2888 73.3306 55.9053 72.6946 55.4754 71.9339 55.2708 71.1685 55.322 70.403 55.3731 69.6758 55.6799 69.1037 56.1898L69.1037 56.1929Z" fill="#FFFFFF" transform="matrix(1 0 0 1.01062 575 313.002)"/><path d="M96.7297 45.9445 96.7297 67.2772 91.5309 67.2772 91.5309 65.7254C90.5148 66.9336 88.9919 67.536 86.9605 67.536 85.6023 67.5504 84.263 67.2084 83.079 66.5436 81.9076 65.882 80.9456 64.9025 80.3062 63.7182 79.6047 62.411 79.2532 60.9455 79.2838 59.4625 79.2501 57.9843 79.6032 56.5237 80.3062 55.2229 80.9472 54.0435 81.9076 53.0719 83.079 52.4183 84.2661 51.7599 85.6023 51.4195 86.9605 51.4322 88.8192 51.4322 90.2574 51.9692 91.2735 53.0416L91.2735 45.9429 96.7313 45.9429ZM90.4379 62.2049C91.0515 61.5417 91.3583 60.626 91.3583 59.4578 91.3583 58.2896 91.0578 57.3899 90.4575 56.7555 90.1586 56.4327 89.7937 56.1785 89.3881 56.0091 88.9824 55.8397 88.5446 55.7614 88.1045 55.7774 87.6651 55.7647 87.2288 55.8445 86.8232 56.0139 86.4175 56.1818 86.0527 56.4358 85.7522 56.7555 85.137 57.4058 84.8303 58.3072 84.8318 59.4578 84.8334 60.61 85.1402 61.5257 85.7522 62.2049 86.0574 62.5181 86.4207 62.7673 86.8232 62.9367 87.2257 63.1078 87.6572 63.1941 88.095 63.1941 88.5329 63.1941 88.9644 63.1061 89.3669 62.9367 89.7702 62.7673 90.1343 62.5181 90.4379 62.2049Z" fill="#FFFFFF" transform="matrix(1 0 0 1.01062 575 313.002)"/></g></svg>